<svg fill="#c1cbd3" role="img" xmlns="http://www.w3.org/2000/svg" version="1.1" width="1101px" height="1268px" viewBox="0 0 1101 1268"
     style="shape-rendering:geometricPrecision; text-rendering:geometricPrecision; image-rendering:optimizeQuality; fill-rule:evenodd; clip-rule:evenodd"
     xmlns:xlink="http://www.w3.org/1999/xlink">
    <title>Espresso</title>
    <g>
        <path style="opacity:0.994"
              d="M 189.5,31.5 C 196.092,30.6404 201.592,32.6404 206,37.5C 230.333,79.5 254.667,121.5 279,163.5C 352.464,130.575 429.297,118.409 509.5,127C 556.058,131.856 600.558,144.023 643,163.5C 667.333,121.5 691.667,79.5 716,37.5C 722.828,30.6256 730.328,29.7923 738.5,35C 743.691,40.6901 744.858,47.1901 742,54.5C 718.247,95.0032 694.747,135.67 671.5,176.5C 800.341,251.716 872.674,364.05 888.5,513.5C 603.5,513.5 318.5,513.5 33.5,513.5C 46.3287,384.286 104.329,281.119 207.5,204C 221.531,194.321 235.864,185.154 250.5,176.5C 227.253,135.67 203.753,95.0032 180,54.5C 176.29,43.7597 179.457,36.093 189.5,31.5 Z M 261.5,320.5 C 287.607,322.393 300.107,336.393 299,362.5C 292.747,383.047 278.913,392.213 257.5,390C 236.031,383.232 227.197,368.732 231,346.5C 236.188,331.8 246.355,323.133 261.5,320.5 Z M 654.5,320.5 C 674.584,321.09 687.084,331.09 692,350.5C 693.076,370.862 683.909,384.028 664.5,390C 642.562,392.282 628.728,382.782 623,361.5C 622.024,338.98 632.524,325.313 654.5,320.5 Z"/>
    </g>
    <g>
        <path style="opacity:0.997"
              d="M 27.5,561.5 C 316.501,561.167 605.501,561.5 894.5,562.5C 895.958,575.432 896.791,588.432 897,601.5C 897.5,624.831 897.667,648.164 897.5,671.5C 954.402,662.412 1002.9,678.412 1043,719.5C 1072.82,755.737 1085.49,797.403 1081,844.5C 1076.61,891.246 1059.61,932.58 1030,968.5C 983.088,1016.52 927.255,1031.02 862.5,1012C 854.605,1009.39 846.938,1006.22 839.5,1002.5C 762.84,1159.31 636.673,1238.64 461,1240.5C 274.822,1237.23 145.489,1150.23 73,979.5C 47.4349,914.902 32.4349,847.902 28,778.5C 23.6883,706.155 23.5216,633.821 27.5,561.5 Z M 915.5,744.5 C 961.74,743.226 991.24,764.893 1004,809.5C 1012.73,856.183 999.228,895.016 963.5,926C 934.778,947.423 904.444,950.09 872.5,934C 870.359,932.692 868.359,931.192 866.5,929.5C 883.954,871.111 893.954,811.445 896.5,750.5C 902.799,748.016 909.132,746.016 915.5,744.5 Z"/>
    </g>
</svg>
