<?xml version="1.0" encoding="UTF-8"?>
<svg fill="#000" xmlns="http://www.w3.org/2000/svg" version="1.1" width="986px" height="1055px" style="shape-rendering:geometricPrecision; text-rendering:geometricPrecision; image-rendering:optimizeQuality; fill-rule:evenodd; clip-rule:evenodd" xmlns:xlink="http://www.w3.org/1999/xlink">
    <g>
        <path d="M 985.5,428.5 C 985.5,434.167 985.5,439.833 985.5,445.5C 981.771,465.959 972.937,483.959 959,499.5C 929.08,530.387 894.247,554.221 854.5,571C 828.893,582.054 802.727,591.554 776,599.5C 782.824,628.108 787.824,657.108 791,686.5C 795.405,726.439 792.405,765.772 782,804.5C 762.619,863.528 722.619,885.861 662,871.5C 624.137,858.987 589.304,840.82 557.5,817C 535.483,800.325 514.65,782.158 495,762.5C 462.87,794.98 427.037,822.48 387.5,845C 365.177,857.552 341.51,866.552 316.5,872C 264.911,883.29 228.744,864.79 208,816.5C 201.794,799.677 197.794,782.344 196,764.5C 192.006,710.08 197.506,656.414 212.5,603.5C 212.167,602.833 211.833,602.167 211.5,601.5C 166.765,589.205 124.432,571.371 84.5,548C 64.2535,535.105 45.7535,519.938 29,502.5C -8.57871,459.711 -8.91204,416.711 28,373.5C 55.4383,345.418 87.2716,323.585 123.5,308C 152.918,295.473 182.918,284.639 213.5,275.5C 197.157,217.906 191.49,159.406 196.5,100C 199.826,84.537 204.326,69.3703 210,54.5C 226.806,15.8393 256.306,-1.66073 298.5,2C 331.75,6.63904 362.75,17.639 391.5,35C 428.578,57.3935 462.578,83.8935 493.5,114.5C 524.482,83.6662 558.482,56.8328 595.5,34C 615.651,21.9501 636.985,12.6168 659.5,6C 722.749,-10.7999 763.583,12.0334 782,74.5C 790.091,108.041 792.757,142.041 790,176.5C 787.273,210.634 781.773,244.3 773.5,277.5C 825.411,290.294 873.744,311.128 918.5,340C 940,354.833 958.167,373 973,394.5C 979.21,405.221 983.377,416.555 985.5,428.5 Z M 689.5,25.5 C 717.757,23.595 737.757,34.9283 749.5,59.5C 758.569,79.7141 763.735,100.714 765,122.5C 766.782,152.271 765.449,181.938 761,211.5C 757.741,231.296 753.907,250.962 749.5,270.5C 701.355,259.531 652.688,251.698 603.5,247C 575.354,206.914 544.688,168.748 511.5,132.5C 540.846,102.787 572.846,77.287 607.5,56C 632.967,40.417 660.3,30.2503 689.5,25.5 Z M 279.5,26.5 C 300.631,26.032 320.964,29.8653 340.5,38C 391.161,60.7331 436.161,92.2331 475.5,132.5C 442.178,168.475 411.512,206.475 383.5,246.5C 334.419,251.208 285.919,259.208 238,270.5C 226.423,229.463 220.257,187.63 219.5,145C 218.795,117.262 223.295,90.4287 233,64.5C 241.26,42.7206 256.76,30.0539 279.5,26.5 Z M 492.5,151.5 C 496.402,153.893 499.902,156.893 503,160.5C 527.389,187.478 549.889,215.311 570.5,244C 544.686,243.232 518.852,242.732 493,242.5C 469.645,242.456 446.311,243.122 423,244.5C 420.833,244.167 418.667,243.833 416.5,243.5C 439.969,211.357 465.303,180.691 492.5,151.5 Z M 453.5,267.5 C 479.835,267.333 506.169,267.5 532.5,268C 551.622,268.36 570.622,269.693 589.5,272C 625.244,323.956 657.078,378.456 685,435.5C 685.667,436.833 685.667,438.167 685,439.5C 657.539,495.783 626.539,549.783 592,601.5C 591.255,602.99 590.088,603.99 588.5,604.5C 524.859,609.656 461.192,609.822 397.5,605C 360.609,552.25 328.275,496.583 300.5,438C 328.068,380.67 359.568,325.837 395,273.5C 395.903,272.299 397.069,271.465 398.5,271C 416.987,269.766 435.321,268.6 453.5,267.5 Z M 357.5,274.5 C 359.857,274.337 362.19,274.503 364.5,275C 335.763,317.617 309.93,362.117 287,408.5C 270.463,371.557 256.297,333.724 244.5,295C 261.207,290.316 277.874,286.649 294.5,284C 315.608,280.581 336.608,277.414 357.5,274.5 Z M 622.5,274.5 C 662.957,278.632 702.957,285.465 742.5,295C 730.632,333.56 716.132,371.06 699,407.5C 675.498,361.806 649.998,317.473 622.5,274.5 Z M 218.5,300.5 C 219.497,300.47 220.164,300.97 220.5,302C 234.477,347.831 251.81,393.165 272.5,438C 252.072,483.668 234.072,530.168 218.5,577.5C 168.809,564.452 122.809,543.619 80.5,515C 64.5827,503.627 50.7493,490.127 39,474.5C 21.3981,450.406 21.0648,426.072 38,401.5C 57.6451,376.921 81.4784,357.421 109.5,343C 144.429,324.973 180.763,310.806 218.5,300.5 Z M 766.5,301.5 C 817.189,313.852 864.189,334.352 907.5,363C 922.881,373.728 936.048,386.228 947,400.5C 955.061,411.349 959.561,423.516 960.5,437C 960.116,444.256 958.783,450.922 956.5,457C 944.797,480.04 928.13,498.707 906.5,513C 864.061,540.964 818.227,561.797 769,575.5C 753.627,528.04 735.127,481.874 713.5,437C 734.645,393.208 752.311,348.041 766.5,301.5 Z M 286.5,467.5 C 309.949,513.743 335.949,558.41 364.5,601.5C 324.207,599.005 284.374,593.005 245,583.5C 247.621,570.627 251.287,557.96 256,545.5C 265.487,519.2 275.654,493.2 286.5,467.5 Z M 698.5,467.5 C 701.027,469.51 702.861,472.177 704,475.5C 718.767,508.796 731.767,542.796 743,577.5C 743.667,578.833 743.667,580.167 743,581.5C 703.405,591.516 663.238,598.016 622.5,601C 650.514,558.153 675.847,513.653 698.5,467.5 Z M 749.5,605.5 C 750.586,605.62 751.253,606.287 751.5,607.5C 765.24,656.994 770.074,707.328 766,758.5C 764.246,776.185 759.912,793.518 753,810.5C 736.518,845.795 709.352,857.961 671.5,847C 648.773,841.303 627.44,832.303 607.5,820C 572.659,798.846 540.992,773.513 512.5,744C 545.88,707.968 576.213,669.634 603.5,629C 651.59,624.888 699.423,617.388 747,606.5C 748.726,608.098 749.559,607.765 749.5,605.5 Z M 237.5,607.5 C 285.629,618.304 334.295,625.804 383.5,630C 404.476,657.897 425.476,685.23 446.5,712C 455.642,720.81 464.475,729.977 473,739.5C 474.602,741.369 475.602,743.369 476,745.5C 441.199,780.812 401.699,809.646 357.5,832C 339.633,840.289 320.967,845.955 301.5,849C 271.05,853.859 248.884,842.692 235,815.5C 223.53,788.185 218.364,759.685 219.5,730C 220.028,688.334 226.028,647.5 237.5,607.5 Z M 416.5,632.5 C 418.473,631.837 420.639,631.504 423,631.5C 469.665,634.771 515.999,634.771 562,631.5C 564.833,631.833 567.667,632.167 570.5,632.5C 547.042,665.134 521.875,696.467 495,726.5C 466.71,696.73 440.543,665.397 416.5,632.5 Z M 490.5,346.5 C 530.247,347.609 558.747,365.943 576,401.5C 590.936,443.927 581.436,479.761 547.5,509C 515.248,530.508 481.915,532.508 447.5,515C 412.146,491.788 397.98,459.288 405,417.5C 417.447,374.376 445.947,350.71 490.5,346.5 Z M 736.5,944.5 C 741.167,944.5 745.833,944.5 750.5,944.5C 750.666,949.844 750.499,955.177 750,960.5C 745.599,961.467 741.099,961.8 736.5,961.5C 736.5,955.833 736.5,950.167 736.5,944.5 Z M 41.5,948.5 C 57.2101,948.099 72.8768,948.599 88.5,950C 99.4879,952.733 106.321,959.566 109,970.5C 112.451,985.865 107.285,997.032 93.5,1004C 98.7134,1007.55 102.88,1012.05 106,1017.5C 111.706,1029.08 117.539,1040.58 123.5,1052C 118.167,1052.67 112.833,1052.67 107.5,1052C 101.644,1040.61 95.9776,1029.61 90.5,1019C 87.6158,1014.55 83.6158,1011.55 78.5,1010C 71.1742,1009.5 63.8409,1009.33 56.5,1009.5C 56.5,1023.83 56.5,1038.17 56.5,1052.5C 51.5,1052.5 46.5,1052.5 41.5,1052.5C 41.5,1017.83 41.5,983.167 41.5,948.5 Z M 56.5,960.5 C 65.2132,960.248 73.8798,960.748 82.5,962C 90.5401,964.579 94.2067,970.079 93.5,978.5C 94.5068,986.296 91.5068,991.796 84.5,995C 75.2479,996.417 65.9146,996.917 56.5,996.5C 56.5,984.5 56.5,972.5 56.5,960.5 Z M 487.5,948.5 C 494.422,948.188 501.256,948.521 508,949.5C 522.921,977.008 537.588,1004.67 552,1032.5C 552.5,1004.5 552.667,976.502 552.5,948.5C 557.5,948.5 562.5,948.5 567.5,948.5C 567.5,983.167 567.5,1017.83 567.5,1052.5C 560.468,1052.83 553.468,1052.5 546.5,1051.5C 532.439,1024.4 517.939,997.067 503,969.5C 502.5,997.165 502.333,1024.83 502.5,1052.5C 497.5,1052.5 492.5,1052.5 487.5,1052.5C 487.5,1017.83 487.5,983.167 487.5,948.5 Z M 386.5,952.5 C 390.833,952.5 395.167,952.5 399.5,952.5C 399.5,959.833 399.5,967.167 399.5,974.5C 408.5,974.5 417.5,974.5 426.5,974.5C 426.5,978.167 426.5,981.833 426.5,985.5C 417.5,985.5 408.5,985.5 399.5,985.5C 399.333,999.837 399.5,1014.17 400,1028.5C 400.297,1031.91 400.964,1035.25 402,1038.5C 403.945,1039.86 406.112,1040.7 408.5,1041C 414.491,1041.5 420.491,1041.67 426.5,1041.5C 426.5,1045.17 426.5,1048.83 426.5,1052.5C 418.16,1052.67 409.827,1052.5 401.5,1052C 393.333,1050.5 388.5,1045.67 387,1037.5C 386.5,1020.17 386.333,1002.84 386.5,985.5C 383.167,985.5 379.833,985.5 376.5,985.5C 376.5,981.833 376.5,978.167 376.5,974.5C 379.833,974.5 383.167,974.5 386.5,974.5C 386.5,967.167 386.5,959.833 386.5,952.5 Z M 680.5,952.5 C 685.167,952.5 689.833,952.5 694.5,952.5C 694.5,959.833 694.5,967.167 694.5,974.5C 703.167,974.5 711.833,974.5 720.5,974.5C 720.5,978.167 720.5,981.833 720.5,985.5C 711.833,985.5 703.167,985.5 694.5,985.5C 694.333,1002.17 694.5,1018.84 695,1035.5C 696.132,1039.15 698.632,1040.99 702.5,1041C 708.491,1041.5 714.491,1041.67 720.5,1041.5C 720.5,1045.17 720.5,1048.83 720.5,1052.5C 712.16,1052.67 703.827,1052.5 695.5,1052C 686.445,1050.27 681.611,1044.77 681,1035.5C 680.5,1018.84 680.333,1002.17 680.5,985.5C 677.5,985.5 674.5,985.5 671.5,985.5C 671.5,981.833 671.5,978.167 671.5,974.5C 674.5,974.5 677.5,974.5 680.5,974.5C 680.5,967.167 680.5,959.833 680.5,952.5 Z M 180.5,1054.5 C 173.167,1054.5 165.833,1054.5 158.5,1054.5C 142.848,1050.35 133.015,1040.35 129,1024.5C 125.451,1006.5 130.284,991.337 143.5,979C 156.365,971.653 169.699,970.653 183.5,976C 192.469,981.317 197.969,989.15 200,999.5C 200.963,1005.47 201.463,1011.47 201.5,1017.5C 181.833,1017.5 162.167,1017.5 142.5,1017.5C 143.701,1034.53 152.867,1043.2 170,1043.5C 173.845,1043.09 177.679,1042.59 181.5,1042C 187.188,1040.15 192.855,1038.32 198.5,1036.5C 198.666,1040.51 198.499,1044.51 198,1048.5C 192.302,1051.21 186.468,1053.21 180.5,1054.5 Z M 160.5,984.5 C 177.015,982.759 186.015,990.093 187.5,1006.5C 172.496,1006.67 157.496,1006.5 142.5,1006C 144.055,994.957 150.055,987.791 160.5,984.5 Z M 252.5,1054.5 C 246.5,1054.5 240.5,1054.5 234.5,1054.5C 219.633,1049.12 213.799,1038.45 217,1022.5C 220.421,1011.52 227.921,1005.35 239.5,1004C 249.494,1003.5 259.494,1003.33 269.5,1003.5C 269.489,995.3 265.822,989.467 258.5,986C 245.937,983.035 233.937,984.535 222.5,990.5C 221.508,986.217 221.174,981.884 221.5,977.5C 232.858,973.607 244.525,972.107 256.5,973C 271.306,975.139 279.806,983.639 282,998.5C 282.5,1016.5 282.667,1034.5 282.5,1052.5C 278.167,1052.5 273.833,1052.5 269.5,1052.5C 269.665,1049.15 269.498,1045.82 269,1042.5C 264.721,1048.29 259.221,1052.29 252.5,1054.5 Z M 254.5,1013.5 C 259.5,1013.5 264.5,1013.5 269.5,1013.5C 270.018,1024.12 266.351,1032.96 258.5,1040C 250.5,1044.67 242.5,1044.67 234.5,1040C 228.124,1032.62 228.124,1025.28 234.5,1018C 241.053,1015.41 247.719,1013.91 254.5,1013.5 Z M 352.5,1054.5 C 345.5,1054.5 338.5,1054.5 331.5,1054.5C 314.646,1049.47 305.146,1038.14 303,1020.5C 301.515,984.317 318.682,968.817 354.5,974C 365.385,975.046 368.551,980.546 364,990.5C 351.179,982.819 338.345,982.652 325.5,990C 317.89,999.892 315.39,1011.06 318,1023.5C 321.27,1036.43 329.604,1043.1 343,1043.5C 350.542,1042.64 357.709,1040.81 364.5,1038C 365.626,1041.74 365.793,1045.58 365,1049.5C 360.859,1051.49 356.692,1053.15 352.5,1054.5 Z M 624.5,1054.5 C 618.5,1054.5 612.5,1054.5 606.5,1054.5C 594.65,1050.79 588.65,1042.63 588.5,1030C 589.006,1014.98 596.673,1006.32 611.5,1004C 621.494,1003.5 631.494,1003.33 641.5,1003.5C 641.609,993.769 636.942,987.603 627.5,985C 617.199,983.404 607.199,984.904 597.5,989.5C 596.808,990.025 596.308,990.692 596,991.5C 594.563,987.028 594.063,982.361 594.5,977.5C 605.496,973.501 616.829,972.001 628.5,973C 645.818,975.659 654.651,985.825 655,1003.5C 655.5,1019.83 655.667,1036.16 655.5,1052.5C 650.833,1052.5 646.167,1052.5 641.5,1052.5C 641.665,1049.48 641.498,1046.48 641,1043.5C 636.644,1049.08 631.144,1052.75 624.5,1054.5 Z M 627.5,1013.5 C 632.167,1013.5 636.833,1013.5 641.5,1013.5C 642.624,1026.43 637.624,1035.93 626.5,1042C 608.638,1046.13 601.138,1039.3 604,1021.5C 605.938,1018.89 608.438,1017.06 611.5,1016C 616.956,1015.06 622.289,1014.22 627.5,1013.5 Z M 906.5,1054.5 C 899.167,1054.5 891.833,1054.5 884.5,1054.5C 881.659,1053.33 878.659,1052.33 875.5,1051.5C 857.843,1040.83 851.009,1025.16 855,1004.5C 859.048,983.954 871.548,973.287 892.5,972.5C 910.668,972.832 921.835,981.832 926,999.5C 927.29,1005.38 927.456,1011.21 926.5,1017C 907.17,1017.5 887.836,1017.67 868.5,1017.5C 869.701,1034.53 878.867,1043.2 896,1043.5C 899.845,1043.09 903.679,1042.59 907.5,1042C 913.188,1040.15 918.855,1038.32 924.5,1036.5C 924.666,1040.51 924.499,1044.51 924,1048.5C 918.302,1051.21 912.468,1053.21 906.5,1054.5 Z M 886.5,984.5 C 903.105,982.623 912.105,989.957 913.5,1006.5C 898.496,1006.67 883.496,1006.5 868.5,1006C 870.055,994.957 876.055,987.791 886.5,984.5 Z M 736.5,974.5 C 741.167,974.5 745.833,974.5 750.5,974.5C 750.5,1000.5 750.5,1026.5 750.5,1052.5C 745.833,1052.5 741.167,1052.5 736.5,1052.5C 736.5,1026.5 736.5,1000.5 736.5,974.5 Z M 766.5,974.5 C 771.5,974.5 776.5,974.5 781.5,974.5C 788.776,995.717 796.61,1016.72 805,1037.5C 812.735,1016.79 820.568,996.128 828.5,975.5C 833.12,974.507 837.786,974.173 842.5,974.5C 833.364,1000.58 824.03,1026.58 814.5,1052.5C 808.132,1052.83 801.798,1052.5 795.5,1051.5C 785.63,1025.89 775.963,1000.22 766.5,974.5 Z M 875.5,1051.5 C 874.833,1052.17 874.833,1052.17 875.5,1051.5 Z"/>
    </g>
</svg>
